<?xml version="1.0" encoding="utf-8"?>
<svg version="1.1" width="13px" height="13px" xmlns:xlink="http://www.w3.org/1999/xlink" xmlns="http://www.w3.org/2000/svg">
  <g transform="translate(-27 -15 )">
    <path d="M 8.03190104166667 8.03190104166667  C 8.455078125 7.60872395833333  8.66666666666667 7.09809027777778  8.66666666666667 6.5  C 8.66666666666667 5.90190972222222  8.455078125 5.39127604166667  8.03190104166667 4.96809895833333  C 7.60872395833333 4.544921875  7.09809027777778 4.33333333333333  6.5 4.33333333333333  C 5.90190972222222 4.33333333333333  5.39127604166667 4.544921875  4.96809895833333 4.96809895833333  C 4.544921875 5.39127604166667  4.33333333333333 5.90190972222222  4.33333333333333 6.5  C 4.33333333333333 7.09809027777778  4.544921875 7.60872395833333  4.96809895833333 8.03190104166667  C 5.39127604166667 8.455078125  5.90190972222222 8.66666666666667  6.5 8.66666666666667  C 7.09809027777778 8.66666666666667  7.60872395833333 8.455078125  8.03190104166667 8.03190104166667  Z M 12.9322916666667 5.37858072916667  C 12.9774305555556 5.43782552083333  13 5.50412326388889  13 5.57747395833333  L 13 7.45638020833333  C 13 7.52408854166667  12.9774305555556 7.58897569444444  12.9322916666667 7.65104166666667  C 12.8871527777778 7.71310763888889  12.8307291666667 7.74978298611111  12.7630208333333 7.76106770833333  L 11.197265625 7.998046875  C 11.0900607638889 8.302734375  10.9800347222222 8.55946180555556  10.8671875 8.76822916666667  C 11.0646701388889 9.05034722222222  11.3665364583333 9.43967013888889  11.7727864583333 9.93619791666667  C 11.8292100694444 10.00390625  11.857421875 10.0744357638889  11.857421875 10.1477864583333  C 11.857421875 10.2211371527778  11.83203125 10.2860243055556  11.78125 10.3424479166667  C 11.62890625 10.5512152777778  11.349609375 10.8559027777778  10.943359375 11.2565104166667  C 10.537109375 11.6571180555556  10.2719184027778 11.857421875  10.1477864583333 11.857421875  C 10.080078125 11.857421875  10.0067274305556 11.83203125  9.927734375 11.78125  L 8.759765625 10.8671875  C 8.51150173611111 10.9969618055556  8.25477430555556 11.1041666666667  7.98958333333333 11.1888020833333  C 7.89930555555556 11.9561631944444  7.81749131944444 12.4809027777778  7.744140625 12.7630208333333  C 7.70464409722222 12.9210069444444  7.60308159722222 13  7.439453125 13  L 5.560546875 13  C 5.48155381944444 13  5.41243489583333 12.9760199652778  5.35319010416667 12.9280598958333  C 5.2939453125 12.8800998263889  5.26150173611111 12.8194444444444  5.255859375 12.74609375  L 5.01888020833333 11.1888020833333  C 4.74240451388889 11.0985243055556  4.48849826388889 10.994140625  4.25716145833333 10.8756510416667  L 3.06380208333333 11.78125  C 3.00737847222222 11.83203125  2.93684895833333 11.857421875  2.85221354166667 11.857421875  C 2.77322048611111 11.857421875  2.70269097222222 11.8263888888889  2.640625 11.7643229166667  C 1.9296875 11.12109375  1.46419270833333 10.6471354166667  1.244140625 10.3424479166667  C 1.20464409722222 10.2860243055556  1.18489583333333 10.2211371527778  1.18489583333333 10.1477864583333  C 1.18489583333333 10.080078125  1.20746527777778 10.0151909722222  1.25260416666667 9.953125  C 1.33723958333333 9.83463541666667  1.48111979166667 9.64702690972222  1.68424479166667 9.39029947916667  C 1.88736979166667 9.13357204861111  2.03971354166667 8.93467881944444  2.14127604166667 8.79361979166667  C 1.98893229166667 8.51150173611111  1.87326388888889 8.23220486111111  1.79427083333333 7.95572916666667  L 0.245442708333333 7.72721354166667  C 0.172092013888889 7.71592881944444  0.112847222222222 7.6806640625  0.0677083333333333 7.62141927083333  C 0.0225694444444444 7.56217447916667  0 7.49587673611111  0 7.42252604166667  L 0 5.54361979166667  C 0 5.47591145833333  0.0225694444444444 5.41102430555556  0.0677083333333333 5.34895833333333  C 0.112847222222222 5.28689236111111  0.166449652777778 5.25021701388889  0.228515625 5.23893229166667  L 1.802734375 5.001953125  C 1.88172743055556 4.74240451388889  1.99175347222222 4.48285590277778  2.1328125 4.22330729166667  C 1.90711805555556 3.90169270833333  1.60525173611111 3.51236979166667  1.22721354166667 3.05533854166667  C 1.17078993055556 2.98763020833333  1.142578125 2.919921875  1.142578125 2.85221354166667  C 1.142578125 2.79578993055555  1.16796875 2.73090277777778  1.21875 2.65755208333333  C 1.36545138888889 2.45442708333333  1.64333767361111 2.15115017361111  2.05240885416667 1.74772135416667  C 2.46148003472222 1.34429253472222  2.72808159722222 1.142578125  2.85221354166667 1.142578125  C 2.92556423611111 1.142578125  2.99891493055556 1.17078993055555  3.072265625 1.22721354166667  L 4.240234375 2.1328125  C 4.48849826388889 2.00303819444444  4.74522569444444 1.89583333333333  5.01041666666667 1.81119791666667  C 5.10069444444444 1.04383680555555  5.18250868055556 0.519097222222221  5.255859375 0.236979166666666  C 5.29535590277778 0.0789930555555549  5.39691840277778 0  5.560546875 0  L 7.439453125 0  C 7.51844618055556 0  7.58756510416667 0.0239800347222211  7.64680989583333 0.0719401041666662  C 7.7060546875 0.11990017361111  7.73849826388889 0.180555555555555  7.744140625 0.25390625  L 7.98111979166667 1.81119791666667  C 8.25759548611111 1.90147569444444  8.51150173611111 2.005859375  8.74283854166667 2.12434895833333  L 9.94466145833333 1.21875  C 9.99544270833333 1.16796875  10.0631510416667 1.142578125  10.1477864583333 1.142578125  C 10.2211371527778 1.142578125  10.2916666666667 1.17078993055555  10.359375 1.22721354166667  C 11.0872395833333 1.89865451388889  11.552734375 2.37825520833333  11.755859375 2.666015625  C 11.7953559027778 2.71115451388889  11.8151041666667 2.77322048611111  11.8151041666667 2.85221354166667  C 11.8151041666667 2.919921875  11.7925347222222 2.98480902777778  11.7473958333333 3.046875  C 11.6627604166667 3.16536458333333  11.5188802083333 3.35297309027778  11.3157552083333 3.60970052083333  C 11.1126302083333 3.86642795138889  10.9602864583333 4.06532118055556  10.8587239583333 4.20638020833333  C 11.0054253472222 4.48849826388889  11.12109375 4.76497395833333  11.2057291666667 5.03580729166667  L 12.7545572916667 5.27278645833333  C 12.8279079861111 5.28407118055556  12.8871527777778 5.3193359375  12.9322916666667 5.37858072916667  Z " fill-rule="nonzero" fill="#ffffff" stroke="none" transform="matrix(1 0 0 1 27 15 )" />
  </g>
</svg>