<?xml version="1.0" encoding="utf-8"?>
<svg version="1.1" width="25px" height="22px" xmlns:xlink="http://www.w3.org/1999/xlink" xmlns="http://www.w3.org/2000/svg">
  <g transform="translate(-238 -14 )">
    <path d="M 24.6907552083333 17.9265625  C 24.8969184027778 18.1442708333333  25 18.4020833333333  25 18.7  L 25 20.9  C 25 21.1979166666667  24.8969184027778 21.4557291666667  24.6907552083333 21.6734375  C 24.4845920138889 21.8911458333333  24.2404513888889 22  23.9583333333333 22  L 1.04166666666667 22  C 0.759548611111111 22  0.515407986111111 21.8911458333333  0.309244791666667 21.6734375  C 0.103081597222222 21.4557291666667  0 21.1979166666667  0 20.9  L 0 18.7  C 0 18.4020833333333  0.103081597222222 18.1442708333333  0.309244791666667 17.9265625  C 0.515407986111111 17.7088541666667  0.759548611111111 17.6  1.04166666666667 17.6  L 23.9583333333333 17.6  C 24.2404513888889 17.6  24.4845920138889 17.7088541666667  24.6907552083333 17.9265625  Z M 24.6907552083333 9.1265625  C 24.8969184027778 9.34427083333333  25 9.60208333333333  25 9.9  L 25 12.1  C 25 12.3979166666667  24.8969184027778 12.6557291666667  24.6907552083333 12.8734375  C 24.4845920138889 13.0911458333333  24.2404513888889 13.2  23.9583333333333 13  L 1.04166666666667 13  C 0.759548611111111 13.2  0.515407986111111 13.0911458333333  0.309244791666667 12.8734375  C 0.103081597222222 12.6557291666667  0 12.3979166666667  0 12.1  L 0 9.9  C 0 9.60208333333333  0.103081597222222 9.34427083333333  0.309244791666667 9.1265625  C 0.515407986111111 8.90885416666667  0.759548611111111 8.8  1.04166666666667 9  L 23.9583333333333 9  C 24.2404513888889 8.8  24.4845920138889 8.90885416666667  24.6907552083333 9.1265625  Z M 24.6907552083333 0.326562500000001  C 24.8969184027778 0.544270833333332  25 0.802083333333332  25 1.1  L 25 3.3  C 25 3.59791666666666  24.8969184027778 3.85572916666666  24.6907552083333 4.0734375  C 24.4845920138889 4.29114583333333  24.2404513888889 4.4  23.9583333333333 4.4  L 1.04166666666667 4.4  C 0.759548611111111 4.4  0.515407986111111 4.29114583333333  0.309244791666667 4.0734375  C 0.103081597222222 3.85572916666666  0 3.59791666666666  0 3.3  L 0 1.1  C 0 0.802083333333332  0.103081597222222 0.544270833333332  0.309244791666667 0.326562500000001  C 0.515407986111111 0.108854166666665  0.759548611111111 0  1.04166666666667 0  L 23.9583333333333 0  C 24.2404513888889 0  24.4845920138889 0.108854166666665  24.6907552083333 0.326562500000001  Z " fill-rule="nonzero" fill="#ffffff" stroke="none" transform="matrix(1 0 0 1 238 14 )" />
  </g>
</svg>