<?xml version="1.0" encoding="utf-8"?>
<svg version="1.1" width="22px" height="18px" xmlns:xlink="http://www.w3.org/1999/xlink" xmlns="http://www.w3.org/2000/svg">
  <g transform="translate(-1102 -16 )">
    <path d="M 20.7723214285714 6.91619318181818  C 21.2388392857143 6.58380681818182  21.6480654761905 6.21306818181818  22 5.80397727272727  L 22 15.9545454545455  C 22 16.5170454545455  21.8076636904762 16.9985795454545  21.4229910714286 17.3991477272727  C 21.038318452381 17.7997159090909  20.5758928571429 18  20.0357142857143 18  L 1.96428571428571 18  C 1.42410714285714 18  0.961681547619048 17.7997159090909  0.577008928571429 17.3991477272727  C 0.19233630952381 16.9985795454545  0 16.5170454545455  0 15.9545454545455  L 0 5.80397727272727  C 0.360119047619048 6.22159090909091  0.7734375 6.59232954545454  1.23995535714286 6.91619318181818  C 4.20275297619048 9.01278409090909  6.23660714285714 10.4829545454545  7.34151785714286 11.3267045454545  C 7.80803571428571 11.6846590909091  8.18656994047619 11.9637784090909  8.47712053571428 12.1640625  C 8.76767113095238 12.3643465909091  9.15438988095238 12.5688920454545  9.63727678571428 12.7776988636364  C 10.1201636904762 12.9865056818182  10.5703125 13.0909090909091  10.9877232142857 13.0909090909091  L 11 13.0909090909091  L 11.0122767857143 13.0909090909091  C 11.4296875 13.0909090909091  11.8798363095238 12.9865056818182  12.3627232142857 12.7776988636364  C 12.8456101190476 12.5688920454545  13.2323288690476 12.3643465909091  13.5228794642857 12.1640625  C 13.8134300595238 11.9637784090909  14.1919642857143 11.6846590909091  14.6584821428571 11.3267045454545  C 16.0498511904762 10.2784090909091  18.0877976190476 8.80823863636364  20.7723214285714 6.91619318181818  Z M 21.4168526785714 0.600852272727272  C 21.8056175595238 1.00142045454545  22 1.48295454545455  22 2.04545454545455  C 22 2.71875  21.7994791666667 3.36221590909091  21.3984375 3.97585227272727  C 20.9973958333333 4.58948863636364  20.4981398809524 5.11363636363636  19.9006696428571 5.54829545454545  C 16.8232886904762 7.77272727272727  14.9081101190476 9.15767045454546  14.1551339285714 9.703125  C 14.0732886904762 9.76278409090909  13.8993675595238 9.89275568181818  13.6333705357143 10.0930397727273  C 13.3673735119048 10.2933238636364  13.1463913690476 10.4552556818182  12.9704241071429 10.5788352272727  C 12.7944568452381 10.7024147727273  12.5816592261905 10.8409090909091  12.33203125 10.9943181818182  C 12.0824032738095 11.1477272727273  11.8470982142857 11.2627840909091  11.6261160714286 11.3394886363636  C 11.4051339285714 11.4161931818182  11.2005208333333 11.4545454545455  11.0122767857143 11.4545454545455  L 11 11.4545454545455  L 10.9877232142857 11.4545454545455  C 10.7994791666667 11.4545454545455  10.5948660714286 11.4161931818182  10.3738839285714 11.3394886363636  C 10.1529017857143 11.2627840909091  9.91759672619048 11.1477272727273  9.66796875 10.9943181818182  C 9.41834077380952 10.8409090909091  9.20554315476191 10.7024147727273  9.02957589285714 10.5788352272727  C 8.85360863095238 10.4552556818182  8.63262648809524 10.2933238636364  8.36662946428572 10.0930397727273  C 8.10063244047619 9.89275568181818  7.92671130952381 9.76278409090909  7.84486607142857 9.703125  C 7.10007440476191 9.15767045454546  6.02790178571429 8.37997159090909  4.62834821428571 7.37002840909091  C 3.22879464285714 6.36008522727273  2.38988095238095 5.75284090909091  2.11160714285714 5.54829545454545  C 1.60416666666667 5.19034090909091  1.12537202380952 4.69815340909091  0.675223214285714 4.07173295454545  C 0.225074404761905 3.4453125  0 2.86363636363636  0 2.32670454545455  C 0 1.66193181818182  0.169828869047619 1.10795454545454  0.509486607142857 0.664772727272728  C 0.849144345238095 0.221590909090907  1.33407738095238 0  1.96428571428571 0  L 20.0357142857143 0  C 20.5677083333333 0  21.028087797619 0.200284090909089  21.4168526785714 0.600852272727272  Z " fill-rule="nonzero" fill="#ffffff" stroke="none" transform="matrix(1 0 0 1 1102 16 )" />
  </g>
</svg>