<?xml version="1.0" encoding="utf-8"?>
<svg version="1.1" width="20px" height="16px" xmlns:xlink="http://www.w3.org/1999/xlink" xmlns="http://www.w3.org/2000/svg">
  <g transform="translate(-14 -129 )">
    <path d="M 8.13775510204082 14.63125  C 8.12925170068027 14.6770833333333  8.13775510204082 14.7333333333333  8.16326530612245 14.8  C 8.16326530612245 14.8333333333333  8.16751700680272 14.9166666666667  8.17602040816326 15.05  C 8.18452380952381 15.1833333333333  8.18664965986395 15.29375  8.18239795918367 15.38125  C 8.1781462585034 15.46875  8.16539115646259 15.5666666666667  8.14413265306122 15.675  C 8.12287414965986 15.7833333333333  8.08035714285714 15.8645833333333  8.01658163265306 15.91875  C 7.95280612244898 15.9729166666667  7.8656462585034 16  7.75510204081633 16  L 3.6734693877551 16  C 2.66156462585034 16  1.79634353741497 15.6479166666667  1.07780612244898 14.94375  C 0.359268707482993 14.2395833333333  0 13.3916666666667  0 12.4  L 0 3.6  C 0 2.60833333333333  0.359268707482993 1.76041666666667  1.07780612244898 1.05625  C 1.79634353741497 0.352083333333331  2.66156462585034 0  3.6734693877551 0  L 7.75510204081633 0  C 7.8656462585034 0  7.96130952380952 0.0395833333333311  8.04209183673469 0.11875  C 8.12287414965986 0.197916666666666  8.16326530612245 0.291666666666666  8.16326530612245 0.4  C 8.16326530612245 0.433333333333332  8.16751700680272 0.516666666666666  8.17602040816326 0.65  C 8.18452380952381 0.783333333333331  8.18664965986395 0.893750000000001  8.18239795918367 0.981249999999999  C 8.1781462585034 1.06875  8.16539115646259 1.16666666666667  8.14413265306122 1.275  C 8.12287414965986 1.38333333333333  8.08035714285714 1.46458333333333  8.01658163265306 1.51875  C 7.95280612244898 1.57291666666667  7.8656462585034 1.6  7.75510204081633 1.6  L 3.6734693877551 1.6  C 3.11224489795918 1.6  2.63180272108844 1.79583333333333  2.23214285714286 2.1875  C 1.83248299319728 2.57916666666667  1.63265306122449 3.05  1.63265306122449 3.6  L 1.63265306122449 12.4  C 1.63265306122449 12.95  1.83248299319728 13.4208333333333  2.23214285714286 13.8125  C 2.63180272108844 14.2041666666667  3.11224489795918 14.4  3.6734693877551 14.4  L 7.3469387755102 14.4  L 7.48724489795918 14.4  L 7.6530612244898 14.4  C 7.6530612244898 14.4  7.70195578231293 14.4041666666667  7.79974489795918 14.4125  C 7.89753401360544 14.4208333333333  7.94642857142857 14.4333333333333  7.94642857142857 14.45  C 7.94642857142857 14.4666666666667  7.98044217687075 14.4895833333333  8.0484693877551 14.51875  C 8.11649659863946 14.5479166666667  8.14625850340136 14.5854166666667  8.13775510204082 14.63125  Z M 19.7576530612245 7.4375  C 19.9192176870748 7.59583333333333  20 7.78333333333333  20 8  C 20 8.21666666666667  19.9192176870748 8.40416666666667  19.7576530612245 8.5625  L 12.8188775510204 15.3625  C 12.6573129251701 15.5208333333333  12.4659863945578 15.6  12.2448979591837 15.6  C 12.0238095238095 15.6  11.8324829931973 15.5208333333333  11.6709183673469 15.3625  C 11.5093537414966 15.2041666666667  11.4285714285714 15.0166666666667  11.4285714285714 14.8  L 11.4285714285714 11.2  L 5.71428571428571 11.2  C 5.49319727891156 11.2  5.30187074829932 11.1208333333333  5.14030612244898 10.9625  C 4.97874149659864 10.8041666666667  4.89795918367347 10.6166666666667  4.89795918367347 10.4  L 4.89795918367347 5.6  C 4.89795918367347 5.38333333333333  4.97874149659864 5.19583333333333  5.14030612244898 5.0375  C 5.30187074829932 4.87916666666667  5.49319727891156 4.8  5.71428571428571 4.8  L 11.4285714285714 4.8  L 11.4285714285714 1.2  C 11.4285714285714 0.983333333333331  11.5093537414966 0.795833333333331  11.6709183673469 0.637499999999999  C 11.8324829931973 0.479166666666666  12.0238095238095 0.4  12.2448979591837 0.4  C 12.4659863945578 0.4  12.6573129251701 0.479166666666666  12.8188775510204 0.637499999999999  L 19.7576530612245 7.4375  Z " fill-rule="nonzero" fill="#333333" stroke="none" transform="matrix(1 0 0 1 14 129 )" />
  </g>
</svg>